<?xml version="1.0" standalone="no"?><svg xmlns="http://www.w3.org/2000/svg" viewBox="0 0 1440 320"><path fill="#2f4f4f" fill-opacity="1" d="M0,96L30,101.3C60,107,120,117,180,106.7C240,96,300,64,360,58.7C420,53,480,75,540,101.3C600,128,660,160,720,170.7C780,181,840,171,900,138.7C960,107,1020,53,1080,48C1140,43,1200,85,1260,85.3C1320,85,1380,43,1410,21.3L1440,0L1440,320L1410,320C1380,320,1320,320,1260,320C1200,320,1140,320,1080,320C1020,320,960,320,900,320C840,320,780,320,720,320C660,320,600,320,540,320C480,320,420,320,360,320C300,320,240,320,180,320C120,320,60,320,30,320L0,320Z"></path></svg>